<mxfile host="app.diagrams.net" modified="2023-03-22T12:19:54.901Z" agent="5.0 (Windows)" etag="-FENXt0ulrk69LOUvKDF" version="21.0.2" type="github">
  <diagram id="C5RBs43oDa-KdzZeNtuy" name="Page-1">
    <mxGraphModel dx="1434" dy="782" grid="1" gridSize="10" guides="1" tooltips="1" connect="1" arrows="1" fold="1" page="1" pageScale="1" pageWidth="827" pageHeight="1169" math="0" shadow="0">
      <root>
        <mxCell id="WIyWlLk6GJQsqaUBKTNV-0" />
        <mxCell id="WIyWlLk6GJQsqaUBKTNV-1" parent="WIyWlLk6GJQsqaUBKTNV-0" />
        <mxCell id="3G79XU-Hu_qv1Ppqr8_f-1" style="edgeStyle=orthogonalEdgeStyle;rounded=0;orthogonalLoop=1;jettySize=auto;html=1;" parent="WIyWlLk6GJQsqaUBKTNV-1" edge="1">
          <mxGeometry relative="1" as="geometry">
            <mxPoint x="1330" y="1162" as="targetPoint" />
            <mxPoint x="1340" y="1072" as="sourcePoint" />
          </mxGeometry>
        </mxCell>
        <mxCell id="3G79XU-Hu_qv1Ppqr8_f-2" style="edgeStyle=orthogonalEdgeStyle;rounded=0;orthogonalLoop=1;jettySize=auto;html=1;" parent="WIyWlLk6GJQsqaUBKTNV-1" source="3G79XU-Hu_qv1Ppqr8_f-0" edge="1">
          <mxGeometry relative="1" as="geometry">
            <mxPoint x="410" y="500" as="targetPoint" />
          </mxGeometry>
        </mxCell>
        <mxCell id="3G79XU-Hu_qv1Ppqr8_f-0" value="start" style="ellipse;whiteSpace=wrap;html=1;" parent="WIyWlLk6GJQsqaUBKTNV-1" vertex="1">
          <mxGeometry x="350" y="360" width="120" height="80" as="geometry" />
        </mxCell>
        <mxCell id="3G79XU-Hu_qv1Ppqr8_f-9" style="edgeStyle=orthogonalEdgeStyle;rounded=0;orthogonalLoop=1;jettySize=auto;html=1;" parent="WIyWlLk6GJQsqaUBKTNV-1" source="3G79XU-Hu_qv1Ppqr8_f-7" target="3G79XU-Hu_qv1Ppqr8_f-8" edge="1">
          <mxGeometry relative="1" as="geometry" />
        </mxCell>
        <mxCell id="3G79XU-Hu_qv1Ppqr8_f-7" value="wczytaj n" style="rounded=0;whiteSpace=wrap;html=1;" parent="WIyWlLk6GJQsqaUBKTNV-1" vertex="1">
          <mxGeometry x="350" y="500" width="120" height="60" as="geometry" />
        </mxCell>
        <mxCell id="3G79XU-Hu_qv1Ppqr8_f-11" style="edgeStyle=orthogonalEdgeStyle;rounded=0;orthogonalLoop=1;jettySize=auto;html=1;entryX=0.5;entryY=0;entryDx=0;entryDy=0;" parent="WIyWlLk6GJQsqaUBKTNV-1" source="3G79XU-Hu_qv1Ppqr8_f-8" target="3G79XU-Hu_qv1Ppqr8_f-10" edge="1">
          <mxGeometry relative="1" as="geometry" />
        </mxCell>
        <mxCell id="3G79XU-Hu_qv1Ppqr8_f-13" style="edgeStyle=orthogonalEdgeStyle;rounded=0;orthogonalLoop=1;jettySize=auto;html=1;" parent="WIyWlLk6GJQsqaUBKTNV-1" source="3G79XU-Hu_qv1Ppqr8_f-8" edge="1">
          <mxGeometry relative="1" as="geometry">
            <mxPoint x="340" y="660" as="targetPoint" />
            <Array as="points">
              <mxPoint x="330" y="640" />
              <mxPoint x="330" y="680" />
              <mxPoint x="340" y="680" />
            </Array>
          </mxGeometry>
        </mxCell>
        <mxCell id="3G79XU-Hu_qv1Ppqr8_f-8" value="&lt;div&gt;wynik = 0&lt;/div&gt;&lt;div&gt;i = 0&lt;br&gt;&lt;/div&gt;" style="rounded=0;whiteSpace=wrap;html=1;" parent="WIyWlLk6GJQsqaUBKTNV-1" vertex="1">
          <mxGeometry x="350" y="610" width="120" height="60" as="geometry" />
        </mxCell>
        <mxCell id="3G79XU-Hu_qv1Ppqr8_f-16" style="edgeStyle=orthogonalEdgeStyle;rounded=0;orthogonalLoop=1;jettySize=auto;html=1;exitX=0.5;exitY=1;exitDx=0;exitDy=0;" parent="WIyWlLk6GJQsqaUBKTNV-1" source="3G79XU-Hu_qv1Ppqr8_f-10" edge="1">
          <mxGeometry relative="1" as="geometry">
            <mxPoint x="409.47058823529414" y="870" as="targetPoint" />
          </mxGeometry>
        </mxCell>
        <mxCell id="3G79XU-Hu_qv1Ppqr8_f-21" style="edgeStyle=orthogonalEdgeStyle;rounded=0;orthogonalLoop=1;jettySize=auto;html=1;entryX=1;entryY=0.5;entryDx=0;entryDy=0;" parent="WIyWlLk6GJQsqaUBKTNV-1" source="3G79XU-Hu_qv1Ppqr8_f-10" target="3G79XU-Hu_qv1Ppqr8_f-12" edge="1">
          <mxGeometry relative="1" as="geometry" />
        </mxCell>
        <mxCell id="3G79XU-Hu_qv1Ppqr8_f-10" value="i &amp;lt; n&amp;nbsp;&amp;nbsp;&amp;nbsp;&amp;nbsp;&amp;nbsp; " style="rhombus;whiteSpace=wrap;html=1;" parent="WIyWlLk6GJQsqaUBKTNV-1" vertex="1">
          <mxGeometry x="370" y="720" width="80" height="80" as="geometry" />
        </mxCell>
        <mxCell id="3G79XU-Hu_qv1Ppqr8_f-17" style="edgeStyle=orthogonalEdgeStyle;rounded=0;orthogonalLoop=1;jettySize=auto;html=1;" parent="WIyWlLk6GJQsqaUBKTNV-1" source="3G79XU-Hu_qv1Ppqr8_f-12" edge="1">
          <mxGeometry relative="1" as="geometry">
            <mxPoint x="220" y="870" as="targetPoint" />
          </mxGeometry>
        </mxCell>
        <mxCell id="3G79XU-Hu_qv1Ppqr8_f-12" value="&lt;div&gt;wynik = wynik / n&lt;/div&gt;&lt;div&gt;wpisz wynik&lt;br&gt;&lt;/div&gt;" style="rounded=0;whiteSpace=wrap;html=1;" parent="WIyWlLk6GJQsqaUBKTNV-1" vertex="1">
          <mxGeometry x="160" y="690" width="120" height="60" as="geometry" />
        </mxCell>
        <mxCell id="3G79XU-Hu_qv1Ppqr8_f-14" value="stop" style="ellipse;whiteSpace=wrap;html=1;" parent="WIyWlLk6GJQsqaUBKTNV-1" vertex="1">
          <mxGeometry x="170" y="870" width="120" height="80" as="geometry" />
        </mxCell>
        <mxCell id="3G79XU-Hu_qv1Ppqr8_f-19" style="edgeStyle=orthogonalEdgeStyle;rounded=0;orthogonalLoop=1;jettySize=auto;html=1;entryX=0;entryY=0.5;entryDx=0;entryDy=0;" parent="WIyWlLk6GJQsqaUBKTNV-1" source="3G79XU-Hu_qv1Ppqr8_f-15" target="3G79XU-Hu_qv1Ppqr8_f-18" edge="1">
          <mxGeometry relative="1" as="geometry" />
        </mxCell>
        <mxCell id="3G79XU-Hu_qv1Ppqr8_f-15" value="wczytaj a " style="rounded=0;whiteSpace=wrap;html=1;" parent="WIyWlLk6GJQsqaUBKTNV-1" vertex="1">
          <mxGeometry x="350" y="870" width="120" height="60" as="geometry" />
        </mxCell>
        <mxCell id="3G79XU-Hu_qv1Ppqr8_f-20" style="edgeStyle=orthogonalEdgeStyle;rounded=0;orthogonalLoop=1;jettySize=auto;html=1;" parent="WIyWlLk6GJQsqaUBKTNV-1" source="3G79XU-Hu_qv1Ppqr8_f-18" edge="1">
          <mxGeometry relative="1" as="geometry">
            <mxPoint x="450" y="760" as="targetPoint" />
            <Array as="points">
              <mxPoint x="610" y="810" />
              <mxPoint x="620" y="810" />
              <mxPoint x="620" y="740" />
              <mxPoint x="450" y="740" />
            </Array>
          </mxGeometry>
        </mxCell>
        <mxCell id="3G79XU-Hu_qv1Ppqr8_f-18" value="&lt;div&gt;wynik = wynik + a&lt;/div&gt;&lt;div&gt;i = i +1 &lt;br&gt;&lt;/div&gt;" style="rounded=0;whiteSpace=wrap;html=1;" parent="WIyWlLk6GJQsqaUBKTNV-1" vertex="1">
          <mxGeometry x="550" y="880" width="120" height="60" as="geometry" />
        </mxCell>
        <mxCell id="HC9jti_HttSLBdUuEKB7-0" value="x c" style="edgeStyle=none;orthogonalLoop=1;jettySize=auto;html=1;rounded=0;" edge="1" parent="WIyWlLk6GJQsqaUBKTNV-1">
          <mxGeometry width="80" relative="1" as="geometry">
            <mxPoint x="440" y="2110" as="sourcePoint" />
            <mxPoint x="520" y="2110" as="targetPoint" />
            <Array as="points" />
          </mxGeometry>
        </mxCell>
      </root>
    </mxGraphModel>
  </diagram>
</mxfile>
